<svg xmlns="http://www.w3.org/2000/svg" width="332" height="326" fill="none" xmlns:v="https://vecta.io/nano"><path d="M267.761 125.25l-9.082 153.824c-.347 5.879-3.015 11.379-7.417 15.29a22.2 22.2 0 0 1-16.057 5.567l-138.531-8.179c-5.879-.347-11.378-3.015-15.29-7.417s-5.914-10.178-5.567-16.056l1.309-22.165 11.083.654a5.55 5.55 0 0 0 5.868-5.214 5.55 5.55 0 0 0-5.214-5.869l-11.082-.654.654-11.082 11.083.654a5.55 5.55 0 0 0 5.868-5.214 5.55 5.55 0 0 0-1.392-4.014c-.978-1.101-2.353-1.768-3.822-1.854l-11.082-.655.654-11.082 11.083.654a5.55 5.55 0 0 0 4.014-1.392c1.101-.977 1.768-2.352 1.854-3.822a5.55 5.55 0 0 0-1.392-4.014c-.978-1.101-2.353-1.768-3.822-1.854l-11.082-.655.654-11.082 11.082.654a5.55 5.55 0 0 0 4.014-1.392c1.101-.977 1.768-2.352 1.854-3.822a5.55 5.55 0 0 0-1.392-4.014c-.978-1.101-2.353-1.768-3.822-1.854l-11.082-.655.654-11.082 11.082.654a5.55 5.55 0 0 0 4.014-1.392c1.101-.977 1.768-2.352 1.854-3.822a5.55 5.55 0 0 0-1.392-4.014c-.978-1.101-2.353-1.768-3.822-1.854l-11.082-.655.654-11.082 11.082.654a5.55 5.55 0 0 0 4.014-1.392c1.101-.977 1.768-2.352 1.854-3.822a5.55 5.55 0 0 0-1.391-4.014c-.978-1.101-2.353-1.768-3.823-1.854l-11.082-.655.654-11.082 11.082.654c1.47.087 2.914-.414 4.014-1.391s1.767-2.353 1.854-3.823a5.55 5.55 0 0 0-1.392-4.014c-.978-1.101-2.352-1.768-3.822-1.854l-11.082-.655 1.309-22.165c.347-5.879 3.015-11.378 7.417-15.29s10.178-5.914 16.057-5.567l103.953 6.137a10.69 10.69 0 0 1 1.327.134 22.06 22.06 0 0 1 13.972 7.275l32.536 36.619c3.566 4.083 5.546 9.311 5.581 14.731.02.445.012.89-.023 1.334h0z" fill="#202b59"/><path d="M273.797 112.035l-31.735 158.793a23.34 23.34 0 0 1-9.935 14.84c-5.149 3.433-11.45 4.681-17.519 3.468l-143.005-28.58c-6.068-1.213-11.406-4.786-14.84-9.935a23.33 23.33 0 0 1-3.468-17.518l4.573-22.881 11.441 2.286c1.517.303 3.093-.009 4.38-.867s2.181-2.193 2.484-3.71-.009-3.092-.867-4.38a5.83 5.83 0 0 0-3.71-2.483l-11.441-2.287 2.286-11.44 11.44 2.286a5.83 5.83 0 0 0 4.38-.867c1.287-.858 2.18-2.193 2.484-3.71a5.83 5.83 0 0 0-4.577-6.863l-11.44-2.287 2.286-11.44 11.441 2.286c1.517.304 3.093-.008 4.38-.867s2.181-2.193 2.484-3.71a5.83 5.83 0 0 0-.867-4.379c-.858-1.287-2.193-2.181-3.71-2.484l-11.44-2.286 2.286-11.441 11.44 2.286c1.517.304 3.093-.008 4.38-.867a5.83 5.83 0 0 0 1.617-8.089c-.858-1.287-2.193-2.181-3.71-2.484l-11.44-2.286 2.286-11.441 11.44 2.287c1.517.303 3.093-.009 4.38-.867s2.181-2.193 2.484-3.71-.009-3.093-.867-4.38-2.193-2.181-3.71-2.484l-11.44-2.286 2.286-11.441 11.441 2.286c1.517.303 3.092-.009 4.38-.867s2.181-2.193 2.484-3.71-.009-3.093-.867-4.38-2.193-2.181-3.71-2.484l-11.44-2.286 2.286-11.44 11.44 2.286c1.517.303 3.093-.009 4.38-.867s2.181-2.193 2.484-3.71-.009-3.093-.867-4.38-2.193-2.181-3.71-2.484l-11.44-2.286 4.573-22.881c1.213-6.068 4.787-11.407 9.935-14.84s11.45-4.681 17.519-3.468l107.311 21.446a11.23 11.23 0 0 1 1.361.331 23.18 23.18 0 0 1 13.49 9.596l28.56 42.828c3.12 4.766 4.424 10.494 3.675 16.141-.044.466-.116.928-.217 1.385h0z" fill="#4854c8"/><path d="M123.08 241.101l-22.88-4.573a11.66 11.66 0 0 1-7.42-4.968c-1.716-2.575-2.341-5.725-1.734-8.759l4.573-22.881a11.67 11.67 0 0 1 13.727-9.154l22.881 4.573c3.034.606 5.703 2.393 7.42 4.967a11.67 11.67 0 0 1 1.734 8.76l-4.573 22.881c-.606 3.034-2.393 5.703-4.967 7.42a11.67 11.67 0 0 1-8.76 1.734zm-16.021-38.894l-4.573 22.88 22.881 4.573 4.573-22.881-22.881-4.572zm28.597-24.029l-22.881-4.573a11.66 11.66 0 0 1-9.154-13.726l4.572-22.881a11.67 11.67 0 0 1 4.968-7.42 11.66 11.66 0 0 1 8.759-1.734l22.881 4.573c3.034.606 5.703 2.393 7.42 4.967s2.34 5.725 1.734 8.759l-4.573 22.881c-.606 3.034-2.393 5.703-4.967 7.42a11.66 11.66 0 0 1-8.759 1.734zm-16.022-38.894l-4.573 22.881 22.881 4.573 4.573-22.881-22.881-4.573z" fill="#a994ff"/><path d="M274.014 110.65l-39.984-7.991c-4.545-.922-8.54-3.605-11.112-7.463s-3.515-8.577-2.619-13.127l7.99-39.984a23.18 23.18 0 0 1 13.49 9.596l28.56 42.828c3.12 4.766 4.424 10.494 3.675 16.141h0z" fill="#202b59"/><path d="M203.159 227.361l-45.761-9.145c-1.518-.304-2.852-1.197-3.71-2.484a5.83 5.83 0 0 1 1.616-8.09c1.287-.858 2.863-1.17 4.38-.867l45.762 9.146c1.517.303 2.851 1.196 3.71 2.483a5.83 5.83 0 0 1 .867 4.38c-.303 1.517-1.197 2.852-2.484 3.71s-2.863 1.17-4.38.867zm-16.013 20.594l-34.321-6.859a5.83 5.83 0 0 1-3.71-2.483c-.859-1.288-1.17-2.863-.867-4.38a5.83 5.83 0 0 1 2.484-3.71c1.287-.858 2.862-1.17 4.379-.867l34.322 6.859a5.83 5.83 0 0 1 4.577 6.863c-.304 1.518-1.197 2.852-2.484 3.71a5.83 5.83 0 0 1-4.38.867zm28.588-83.516l-45.761-9.146c-1.517-.303-2.852-1.197-3.71-2.484a5.83 5.83 0 0 1 5.996-8.956l45.762 9.145c1.517.303 2.851 1.197 3.71 2.484a5.83 5.83 0 0 1 .867 4.38c-.303 1.518-1.197 2.851-2.484 3.71a5.83 5.83 0 0 1-4.38.867zm-16.013 20.594l-34.321-6.859c-1.517-.303-2.852-1.197-3.71-2.484s-1.17-2.862-.867-4.379a5.83 5.83 0 0 1 2.484-3.71c1.287-.859 2.862-1.171 4.379-.867l34.322 6.859c1.517.303 2.851 1.196 3.71 2.483a5.83 5.83 0 0 1 .867 4.38c-.303 1.517-1.197 2.852-2.484 3.71s-2.863 1.17-4.38.867z" fill="#a994ff"/><path d="M212.296 122.111l-34.321-6.859c-1.517-.304-2.852-1.197-3.71-2.484s-1.17-2.863-.867-4.38 1.197-2.851 2.484-3.71a5.83 5.83 0 0 1 4.379-.867l34.322 6.859c1.517.303 2.851 1.197 3.71 2.484a5.83 5.83 0 0 1 .867 4.38c-.303 1.517-1.197 2.851-2.484 3.71a5.83 5.83 0 0 1-4.38.867zm-81.226-10.285a5.83 5.83 0 0 1-3.709-2.484l-9.154-13.727c-.827-1.287-1.114-2.847-.802-4.344s1.201-2.812 2.474-3.66a5.84 5.84 0 0 1 4.33-.877 5.83 5.83 0 0 1 3.703 2.41l5.538 8.305 23.596-19.84a5.82 5.82 0 0 1 4.258-1.345 5.83 5.83 0 0 1 2.186.636 5.84 5.84 0 0 1 1.777 1.424 5.86 5.86 0 0 1 1.345 4.258c-.067.763-.283 1.506-.636 2.186s-.838 1.283-1.424 1.776l-28.597 24.029c-.629.527-1.362.915-2.151 1.14s-1.616.28-2.429.163l-.305-.049z" fill="#fd035d"/><path d="M105.894 59.205a5.83 5.83 0 0 1-6.863 4.577L76.15 59.21c-1.517-.303-2.852-1.197-3.71-2.484s-1.17-2.863-.867-4.38 1.197-2.852 2.484-3.71 2.863-1.17 4.38-.867l22.881 4.573c1.517.303 2.852 1.197 3.71 2.484s1.17 2.862.867 4.38zm-4.573 22.881a5.83 5.83 0 0 1-2.483 3.71c-1.287.858-2.863 1.17-4.38.867L71.577 82.09c-1.517-.303-2.852-1.197-3.71-2.484s-1.17-2.863-.867-4.38 1.197-2.852 2.484-3.71 2.862-1.17 4.38-.867l22.881 4.573a5.83 5.83 0 0 1 4.577 6.864zm-4.572 22.881c-.303 1.517-1.197 2.852-2.484 3.71s-2.862 1.17-4.38.867l-22.881-4.573a5.83 5.83 0 0 1-3.71-2.483c-.858-1.288-1.17-2.863-.867-4.38s1.197-2.852 2.484-3.71 2.863-1.17 4.38-.867l22.881 4.573c1.517.303 2.852 1.197 3.71 2.483s1.17 2.863.867 4.38zm-4.573 22.881c-.303 1.517-1.197 2.852-2.484 3.71s-2.863 1.17-4.38.867l-22.881-4.573a5.83 5.83 0 0 1-3.71-2.483c-.858-1.288-1.17-2.863-.867-4.38s1.197-2.852 2.484-3.71 2.862-1.17 4.38-.867l22.881 4.573a5.83 5.83 0 0 1 3.71 2.483c.858 1.288 1.17 2.863.867 4.38zm-4.573 22.881c-.303 1.517-1.197 2.852-2.484 3.71s-2.862 1.17-4.38.867l-22.881-4.573a5.83 5.83 0 0 1-4.577-6.863c.303-1.517 1.197-2.852 2.484-3.71a5.83 5.83 0 0 1 4.38-.867l22.881 4.572c1.517.304 2.852 1.197 3.71 2.484s1.17 2.863.867 4.38zM83.03 173.61c-.303 1.517-1.197 2.851-2.484 3.71a5.83 5.83 0 0 1-4.38.867l-22.881-4.573c-1.517-.303-2.852-1.197-3.71-2.484a5.83 5.83 0 0 1-.867-4.379c.303-1.517 1.197-2.852 2.484-3.71a5.83 5.83 0 0 1 4.38-.867l22.881 4.572c1.517.304 2.852 1.197 3.71 2.484s1.17 2.863.867 4.38zm-4.572 22.881c-.303 1.517-1.197 2.851-2.484 3.71a5.83 5.83 0 0 1-4.38.867l-22.881-4.573c-1.517-.303-2.852-1.197-3.71-2.484s-1.17-2.862-.867-4.38 1.197-2.851 2.484-3.71a5.83 5.83 0 0 1 4.38-.867l22.881 4.573c1.517.303 2.852 1.197 3.71 2.484s1.17 2.863.867 4.38zm-4.573 22.881c-.303 1.517-1.197 2.851-2.484 3.71a5.83 5.83 0 0 1-4.38.867l-22.881-4.573c-1.517-.303-2.852-1.197-3.71-2.484s-1.17-2.863-.867-4.38 1.197-2.851 2.484-3.71a5.83 5.83 0 0 1 4.38-.867l22.881 4.573c1.517.303 2.852 1.197 3.71 2.484s1.17 2.862.867 4.38z" fill="#4854c8"/></svg>