<svg xmlns="http://www.w3.org/2000/svg" width="332" height="326" fill="none" xmlns:v="https://vecta.io/nano"><g fill="#4854c8"><path d="M187.045 110.092l-12.725-9.219-14.95 20.635-20.634-14.949-9.219 12.724 26.997 19.559 4.61-6.362 6.362 4.609 19.559-26.997z"/><path d="M167.486 137.089l19.559-26.997-12.725-9.219-14.95 20.635 1.753 10.972 6.363 4.609z"/><path d="M190.601 167.557l-46.557 7.439-3.719-23.278c-2.051-12.836 6.723-24.947 19.559-26.998s24.946 6.723 26.997 19.559l3.72 23.278z"/><path d="M190.6 167.557l-3.719-23.278c-2.051-12.836-14.161-21.609-26.997-19.559l7.438 46.557 23.278-3.72zm-64.874 42.196l-38.797 6.198-7.439-46.556 15.519-2.479 4.959 31.037 23.278-3.719 2.48 15.519zm131.908-21.077l-38.796 6.199-2.48-15.519 23.278-3.719-4.959-31.037 15.519-2.48 7.438 46.556zM117.325 306.584l-15.519 2.48-7.439-46.556 41.449-6.623 2.48 15.519-25.93 4.143 4.959 31.037zm155.187-24.795l-15.519 2.479-4.959-31.037-25.93 4.143-2.48-15.519 41.449-6.623 7.439 46.557zM89.408 231.47l38.797-6.199 2.48 15.519-38.797 6.199-2.48-15.519zm131.909-21.076l38.797-6.199 2.48 15.519-38.797 6.199-2.48-15.519z"/></g><path d="M43.97 46.691l15.519-2.48 7.604 47.591-15.519 2.48-7.604-47.591zm93.112-14.877l15.518-2.48 7.604 47.591-15.518 2.48-7.604-47.591zm93.112-14.878l15.519-2.479 7.604 47.591-15.519 2.48-7.604-47.591zM129.167 81.884l-46.556 7.439-7.604-47.591 46.556-7.439 7.604 47.591zM95.65 71.324l15.519-2.48-2.645-16.553-15.519 2.48 2.645 16.553zm12.398 77.594l-46.556 7.438-7.439-46.556 46.556-7.438 7.439 46.556zm-33.517-10.56l15.519-2.48-2.48-15.518-15.519 2.479 2.48 15.519zm147.748-71.352l-46.556 7.439-7.604-47.591 46.556-7.439 7.604 47.591zm-33.517-10.56l15.519-2.48-2.645-16.553-15.518 2.48 2.644 16.553zm74.473 67.676l-46.556 7.439-7.439-46.557 46.556-7.439 7.439 46.556zm-33.517-10.56l15.519-2.479-2.48-15.519-15.519 2.48 2.48 15.518zm42.114-38.558l15.519-2.48 7.439 46.556-15.519 2.48-7.439-46.556zM22.498 114.842l15.519-2.48 7.439 46.556-15.519 2.48-7.439-46.556z" fill="#a994ff"/><g fill="#fd035d"><path d="M187.159 295.426c-29.947 4.785-58.209-15.69-62.994-45.637l-13.638-85.353 108.631-17.357 13.638 85.353c4.785 29.947-15.691 58.209-45.637 62.994z"/><path d="M187.159 295.426c29.946-4.785 50.422-33.047 45.637-62.994l-13.638-85.353-54.315 8.679 22.316 139.668z"/></g></svg>